<mxfile host="app.diagrams.net" modified="2022-11-11T07:18:22.663Z" agent="5.0 (Windows NT 10.0; Win64; x64) AppleWebKit/537.36 (KHTML, like Gecko) Chrome/107.0.0.0 Safari/537.36" etag="JB-1IUdhaCWQJ_MrLGaH" version="20.5.1" type="github">
  <diagram id="C5RBs43oDa-KdzZeNtuy" name="Page-1">
    <mxGraphModel dx="1221" dy="644" grid="1" gridSize="10" guides="1" tooltips="1" connect="1" arrows="1" fold="1" page="1" pageScale="1" pageWidth="827" pageHeight="1169" math="0" shadow="0">
      <root>
        <mxCell id="WIyWlLk6GJQsqaUBKTNV-0" />
        <mxCell id="WIyWlLk6GJQsqaUBKTNV-1" parent="WIyWlLk6GJQsqaUBKTNV-0" />
        <mxCell id="HOhmC4jqfY8AZKKkS0AU-8" style="edgeStyle=orthogonalEdgeStyle;rounded=0;orthogonalLoop=1;jettySize=auto;html=1;entryX=0.5;entryY=0;entryDx=0;entryDy=0;" edge="1" parent="WIyWlLk6GJQsqaUBKTNV-1" source="HOhmC4jqfY8AZKKkS0AU-0" target="HOhmC4jqfY8AZKKkS0AU-2">
          <mxGeometry relative="1" as="geometry" />
        </mxCell>
        <mxCell id="HOhmC4jqfY8AZKKkS0AU-0" value="共享车辆投放的运营&lt;br&gt;" style="rounded=1;whiteSpace=wrap;html=1;" vertex="1" parent="WIyWlLk6GJQsqaUBKTNV-1">
          <mxGeometry x="250" y="190" width="120" height="60" as="geometry" />
        </mxCell>
        <mxCell id="HOhmC4jqfY8AZKKkS0AU-9" style="edgeStyle=orthogonalEdgeStyle;rounded=0;orthogonalLoop=1;jettySize=auto;html=1;entryX=0.5;entryY=0;entryDx=0;entryDy=0;" edge="1" parent="WIyWlLk6GJQsqaUBKTNV-1" source="HOhmC4jqfY8AZKKkS0AU-2" target="HOhmC4jqfY8AZKKkS0AU-4">
          <mxGeometry relative="1" as="geometry" />
        </mxCell>
        <mxCell id="HOhmC4jqfY8AZKKkS0AU-2" value="达到保养里程" style="rhombus;whiteSpace=wrap;html=1;" vertex="1" parent="WIyWlLk6GJQsqaUBKTNV-1">
          <mxGeometry x="247.5" y="280" width="125" height="100" as="geometry" />
        </mxCell>
        <mxCell id="HOhmC4jqfY8AZKKkS0AU-5" style="edgeStyle=orthogonalEdgeStyle;rounded=0;orthogonalLoop=1;jettySize=auto;html=1;" edge="1" parent="WIyWlLk6GJQsqaUBKTNV-1" source="HOhmC4jqfY8AZKKkS0AU-4" target="HOhmC4jqfY8AZKKkS0AU-6">
          <mxGeometry relative="1" as="geometry">
            <mxPoint x="311.5" y="590" as="targetPoint" />
          </mxGeometry>
        </mxCell>
        <mxCell id="HOhmC4jqfY8AZKKkS0AU-4" value="生成保养工单" style="rounded=0;whiteSpace=wrap;html=1;" vertex="1" parent="WIyWlLk6GJQsqaUBKTNV-1">
          <mxGeometry x="248.5" y="410" width="123" height="60" as="geometry" />
        </mxCell>
        <mxCell id="HOhmC4jqfY8AZKKkS0AU-14" style="edgeStyle=orthogonalEdgeStyle;rounded=0;orthogonalLoop=1;jettySize=auto;html=1;entryX=0.5;entryY=0;entryDx=0;entryDy=0;" edge="1" parent="WIyWlLk6GJQsqaUBKTNV-1" source="HOhmC4jqfY8AZKKkS0AU-6" target="HOhmC4jqfY8AZKKkS0AU-12">
          <mxGeometry relative="1" as="geometry" />
        </mxCell>
        <mxCell id="HOhmC4jqfY8AZKKkS0AU-6" value="拖回工厂" style="rounded=0;whiteSpace=wrap;html=1;" vertex="1" parent="WIyWlLk6GJQsqaUBKTNV-1">
          <mxGeometry x="250" y="510" width="120" height="60" as="geometry" />
        </mxCell>
        <mxCell id="HOhmC4jqfY8AZKKkS0AU-12" value="投放运营&lt;br&gt;(保养里程清零)" style="rounded=0;whiteSpace=wrap;html=1;" vertex="1" parent="WIyWlLk6GJQsqaUBKTNV-1">
          <mxGeometry x="250" y="600" width="120" height="60" as="geometry" />
        </mxCell>
        <mxCell id="HOhmC4jqfY8AZKKkS0AU-15" value="工人接单" style="text;html=1;strokeColor=none;fillColor=none;align=center;verticalAlign=middle;whiteSpace=wrap;rounded=0;" vertex="1" parent="WIyWlLk6GJQsqaUBKTNV-1">
          <mxGeometry x="320" y="480" width="50" height="20" as="geometry" />
        </mxCell>
      </root>
    </mxGraphModel>
  </diagram>
</mxfile>
